# xmcd CD database file
#
# Track frame offsets:
#	183
#	19383
#	33333
#	44058
#	55533
#	70833
#	83658
#	95283
#	107733
#	120333
#	135183
#	150033
#	161658
#	175833
#	186108
#
# Disc length: 2669 seconds
#
# Revision: 3
# Processed by: cddbd v1.5.1PL0 Copyright (c) Steve Scherf et al.
# Submitted via: CDex 1.51
#
DISCID=ae0a6b0f
DTITLE=King Pleasure and The Biscuit Boys - This Is It!
DYEAR=1900
DGENRE=
TTITLE0=Mr. Blues Is Coming To Town/Oh Babe
TTITLE1=Squeeze Me
TTITLE2=Lovin' Machine
TTITLE3=Bongo Boogie
TTITLE4=Fish Man
TTITLE5=House Party
TTITLE6=Jumpin' From Six To Six
TTITLE7=This Is It
TTITLE8=Why Don't You Do Right?
TTITLE9=Train Kept A-Rollin'
TTITLE10=Bad Bad Whiskey
TTITLE11=Drinkin' Wine Spo-Dee-O-Dee
TTITLE12=Ain't Nobody Here But Us Chickens
TTITLE13=Chicken Rhythm
TTITLE14=All Night Long
EXTD=
EXTT0=
EXTT1=
EXTT2=
EXTT3=
EXTT4=
EXTT5=
EXTT6=
EXTT7=
EXTT8=
EXTT9=
EXTT10=
EXTT11=
EXTT12=
EXTT13=
EXTT14=
PLAYORDER=
